<?xml version="1.0" encoding="utf-8"?>
<svg version="1.1" id="Ebene_1" xmlns="http://www.w3.org/2000/svg" xmlns:xlink="http://www.w3.org/1999/xlink" x="0px" y="0px"
	 width="100px" height="100px" viewBox="0 0 100 100" style="enable-background:new 0 0 100 100;" xml:space="preserve" preserveAspectRatio="xMinYMid">

<style type="text/css">
	.st0{fill:#FFFFFF;}
</style>
<path class="st0" d="M83.3,46.2c-2.5,1.101-5.1,1.801-7.899,2.2c2.803-1.7,5-4.4,6-7.601c-2.601,1.6-5.601,2.7-8.697,3.3
	c-2.5-2.7-6.104-4.3-10-4.3C55.1,39.8,49,45.9,49,53.502c0,1.1,0.1,2.1,0.4,3.1c-11.4-0.6-21.4-6-28.2-14.3c-1.2,2-1.9,4.4-1.9,6.9
	c0,4.7,2.4,8.899,6.1,11.399c-2.2-0.1-4.3-0.699-6.2-1.699v0.199c0,6.601,4.7,12.199,11,13.398c-1,0.301-2.2,0.4-3.5,0.4
	c-0.9,0-1.7-0.101-2.6-0.2c1.7,5.399,6.8,9.399,12.8,9.5c-4.7,3.7-10.6,5.899-17,5.899c-1.1,0-2.2-0.101-3.3-0.199
	c6.1,3.899,13.2,6.1,21,6.1c25.2,0,38.9-20.8,38.9-38.896c0-0.601,0-1.201,0-1.801C79.2,51.4,81.5,49.001,83.3,46.2z"/>
</svg>
