<?xml version="1.0" encoding="utf-8"?>
<svg version="1.1" id="Ebene_1" xmlns="http://www.w3.org/2000/svg" xmlns:xlink="http://www.w3.org/1999/xlink" x="0px" y="0px"
	 width="100px" height="100px" viewBox="0 0 100 100" enable-background="new 0 0 100 100" xml:space="preserve" preserveAspectRatio="xMinYMid">
	<style type="text/css">
		path{
			fill:#000;
		}
	</style>
<path fill="#010101" d="M11.309,35.892c0-4.199,0.88-8.368,2.649-12.497s4.299-7.968,7.599-11.498
	c3.299-3.529,7.628-6.399,12.997-8.598S45.871,0,52.4,0c10.598,0,19.295,3.269,26.093,9.798c6.8,6.529,10.198,14.227,10.198,23.096
	c0,11.397-2.878,20.813-8.647,28.243c-5.77,7.429-13.218,11.147-22.346,11.147c-2.998,0-5.817-0.699-8.448-2.1
	c-2.629-1.399-4.479-3.099-5.549-5.099l-3.999,15.797c-0.33,1.27-0.77,2.549-1.3,3.85c-0.529,1.299-1.119,2.549-1.749,3.748
	c-0.63,1.2-1.271,2.329-1.9,3.4c-0.63,1.069-1.27,2.069-1.899,2.998c-0.63,0.93-1.18,1.721-1.649,2.35
	c-0.47,0.63-0.899,1.181-1.3,1.649l-0.6,0.801c-0.2,0.27-0.47,0.369-0.8,0.3c-0.33-0.07-0.53-0.271-0.6-0.6
	c0-0.07-0.05-0.531-0.15-1.399c-0.1-0.87-0.2-1.78-0.3-2.75c-0.1-0.971-0.2-2.22-0.3-3.749c-0.101-1.53-0.13-3.02-0.101-4.45
	c0.03-1.429,0.13-3.018,0.301-4.749c0.17-1.729,0.42-3.327,0.749-4.797c0.73-3.13,3.2-13.568,7.398-31.295
	c-0.529-1.069-0.97-2.349-1.3-3.85c-0.329-1.499-0.5-2.719-0.5-3.649l-0.099-1.499c0-4.269,1.079-7.818,3.248-10.648
	c2.17-2.829,4.779-4.249,7.849-4.249c2.47,0,4.38,0.819,5.749,2.449c1.369,1.629,2.05,3.679,2.05,6.148
	c0,1.53-0.28,3.419-0.849,5.649c-0.571,2.229-1.32,4.798-2.251,7.699c-0.93,2.898-1.6,5.249-1.999,7.047
	c-0.67,3-0.08,5.599,1.75,7.799c1.828,2.2,4.279,3.3,7.348,3.3c5.269,0,9.618-2.98,13.047-8.947
	c3.431-5.97,5.148-13.178,5.148-21.646c0-6.469-2.099-11.748-6.298-15.847S58.328,9.798,50.8,9.798
	c-8.397,0-15.217,2.7-20.445,8.099c-5.229,5.398-7.849,11.867-7.849,19.395c0,4.469,1.27,8.229,3.8,11.297
	c0.869,1,1.13,2.069,0.799,3.2c-0.13,0.329-0.329,1.1-0.6,2.299c-0.27,1.199-0.47,1.971-0.6,2.301c-0.13,0.729-0.47,1.219-1,1.448
	c-0.529,0.23-1.13,0.221-1.799-0.05c-3.93-1.599-6.879-4.348-8.849-8.248C12.289,45.641,11.309,41.091,11.309,35.892z"/>
</svg>
