<?xml version="1.0" encoding="utf-8"?>
<svg version="1.1" id="Ebene_1" xmlns="http://www.w3.org/2000/svg" xmlns:xlink="http://www.w3.org/1999/xlink" x="0px" y="0px"
	 width="100px" height="100px" viewBox="0 0 100 100" style="enable-background:new 0 0 100 100;" xml:space="preserve" preserveAspectRatio="xMinYMid">
<path fill="#FFFFFF" d="M95.674,88.603L65.031,57.96C69.407,52.117,72,44.862,72,37C72,17.67,56.33,2,37,2C17.67,2,2,17.67,2,37s15.67,35,35,35
	c7.862,0,15.119-2.593,20.961-6.969l30.791,30.791l0.034-0.034c0.911,0.968,2.196,1.58,3.631,1.58c2.762,0,5-2.238,5-5
	C97.417,90.857,96.732,89.519,95.674,88.603z M37,62c-13.807,0-25-11.193-25-25c0-13.808,11.193-25,25-25c13.807,0,25,11.192,25,25
	C62,50.807,50.807,62,37,62z"/>
</svg>
