<?xml version="1.0" encoding="utf-8"?>
<svg xmlns="http://www.w3.org/2000/svg" xmlns:xlink="http://www.w3.org/1999/xlink" version="1.1" id="icon-network" x="0px" y="0px" viewBox="0 0 100 100" style="enable-background:new 0 0 100 100;" xml:space="preserve" preserveAspectRatio="xMinYMid">
<path d="M51.5,45.3c-0.2,0.1-0.3,0.1-0.5,0.2L51.5,45.3C51.4,45.4,51.5,45.3,51.5,45.3z"/>
<path d="M53.1,73.8L53.1,73.8L53.1,73.8c-0.9,1.2-2.5,1.4-3.6,0.5L49,73.9l-0.5-0.4c0.1-0.1,0.1-0.2,0.1-0.3l1.7-4.8  c0.1,0.1,0.1,0.1,0.2,0.2c0.2,0.1,0.4,0.3,0.5,0.4c0.1,0.1,0.2,0.1,0.3,0.2c0.1,0.1,0.2,0.2,0.3,0.3c0.1,0.1,0.1,0.1,0.2,0.2  c0.2,0.1,0.3,0.2,0.4,0.3c0.3,0.2,0.5,0.4,0.5,0.4C53.7,71.1,53.9,72.7,53.1,73.8z"/>
<path d="M73.3,65.2L73.3,65.2c-0.9,1.2-2.5,1.4-3.6,0.5c0,0-0.2-0.1-0.4-0.3c-0.7-0.6-2.2-1.7-4-3.2c-0.2-0.2-0.5-0.4-0.7-0.6  c-0.7-0.5-1.4-1.1-2.1-1.7c-0.1-0.1-0.2-0.1-0.3-0.2c-0.4-0.3-0.8-0.6-1.2-1c-4.1-3.2-8.1-6.4-8.4-6.6c-0.8-0.6-1.5,0.4-0.8,1  c0.4,0.3,4.5,3.6,8.2,6.5c0.1,0.1,0.2,0.2,0.3,0.2c0.2,0.2,0.5,0.4,0.7,0.5c0.3,0.2,0.6,0.4,0.8,0.6c0.1,0.1,0.2,0.2,0.4,0.3  c1,0.8,1.9,1.5,2.5,2c0.2,0.1,0.3,0.2,0.4,0.3c0.2,0.1,0.3,0.3,0.5,0.4c0.1,0.1,0.1,0.1,0.2,0.2c0,0,0,0,0,0c0,0,0,0,0,0  c0.3,0.3,0.5,0.4,0.5,0.4c1.1,0.9,1.3,2.4,0.4,3.5l0,0l0,0l0,0c-0.9,1.1-2.4,1.3-3.5,0.4c0,0-0.1-0.1-0.4-0.3c0,0-0.1-0.1-0.1-0.1  c0,0,0,0,0,0c-0.1,0-0.1-0.1-0.2-0.1c0,0-0.1-0.1-0.1-0.1c0,0-0.1-0.1-0.1-0.1c-0.1-0.1-0.2-0.1-0.3-0.2c0,0,0,0-0.1,0  c-0.3-0.2-0.5-0.4-0.9-0.7c-0.1-0.1-0.1-0.1-0.2-0.2c-0.1-0.1-0.3-0.2-0.5-0.4c-0.2-0.1-0.3-0.3-0.5-0.4c-0.1-0.1-0.3-0.2-0.4-0.3  c-1-0.8-2.1-1.6-3.2-2.5c-3.5-2.8-7.2-5.7-7.6-6c-0.8-0.6-1.6,0.4-0.8,1c0.4,0.4,4.3,3.4,7.4,5.9c0.3,0.2,0.6,0.4,0.8,0.6  c0.2,0.2,0.5,0.4,0.7,0.5c0.2,0.2,0.4,0.3,0.6,0.5c0.3,0.3,0.6,0.5,0.9,0.7c0.1,0.1,0.2,0.2,0.3,0.2c0.1,0,0.1,0.1,0.2,0.1  c0.1,0.1,0.2,0.1,0.3,0.2c0.1,0.1,0.3,0.2,0.4,0.3c0.3,0.2,0.4,0.3,0.4,0.3c1.1,0.9,1.3,2.4,0.4,3.5l0,0l0,0l0,0  c-0.9,1.1-2.4,1.3-3.5,0.4c0,0-0.1-0.1-0.4-0.3c0,0-0.1-0.1-0.1-0.1c0,0,0,0,0,0c-0.1-0.1-0.2-0.2-0.3-0.2c-0.6-0.5-1.4-1.1-2.4-1.9  c-0.2-0.2-0.5-0.4-0.7-0.6c-0.4-0.3-0.8-0.6-1.2-1c-0.3-0.2-0.6-0.5-0.9-0.7c0-0.6-0.1-1.2-0.3-1.8c-0.4-0.8-1.1-1.5-2-1.8  c-0.4-0.1-0.8-0.2-1.1-0.2c-0.4,0-0.7,0.1-1,0.2c-0.6-0.5-1-0.8-1.2-1c0-0.1-0.1-0.2-0.1-0.3c-0.4-0.9-1.1-1.5-2-1.8  c-0.4-0.1-0.8-0.2-1.1-0.2c-1.1,0-2.2,0.5-2.8,1.4c-0.3-1.1-1.1-2.1-2.3-2.5c-0.4-0.1-0.8-0.2-1.1-0.2c-1.2,0-2.3,0.6-2.9,1.5  c-0.3-1.1-1.1-2.1-2.3-2.5c-0.4-0.1-0.8-0.2-1.1-0.2c-1.5,0-2.8,1-3.3,2.4l0,0.1c-0.2-0.1-0.4-0.2-0.6-0.3l-8-4.6  c-0.3-0.2-0.4-0.6-0.2-0.9L25.2,39c0.2-0.3,0.6-0.5,0.9-0.3l4.1,1.6c0.3,0.1,0.9,0.1,1.2,0l9.7-3.1c0.3-0.1,0.9-0.1,1.2-0.1l0.8,0.1  c0.3,0.1,0.4,0.3,0.1,0.5l-1,0.8c0,0,0,0,0,0c-2.2,1.6-5.3,3.9-6.6,4.8c-1.4,0.9-2,2.3-1.5,3.8c0.6,1.9,2.5,3.2,4.7,3.2  c0.7,0,1.4-0.1,2.1-0.4c2.1-0.9,5.1-2.1,7.6-3.2c0,0,0.1,0,0.1,0l1-0.4c0.6-0.3,1.2-0.5,1.6-0.7l0.4-0.2c0,0,0.1,0,0.1,0  c0,0,0,0,0,0c0.3-0.1,0.7,0,1,0.2l2.8,2.2c0.3,0.2,0.7,0.6,1,0.8l8.5,6.7l7.7,6l0.5,0.4C74,62.5,74.2,64.1,73.3,65.2z"/>
<path d="M52.6,68.5c-0.4-0.3-0.8-0.6-1.2-0.9l0,0C51.8,67.9,52.2,68.2,52.6,68.5z"/>
<path d="M60.3,59.9c-0.1-0.1-0.2-0.2-0.3-0.2l0,0C60.1,59.7,60.2,59.8,60.3,59.9z"/>
<path d="M44.9,37.9c0.3-0.2,0.8-0.5,1.1-0.6l9.4-3.1c0.3-0.1,0.9-0.1,1.2,0.1l12,5.8c0.3,0.2,0.9,0.2,1.2,0l4.1-1.6  c0.3-0.1,0.7,0,0.9,0.3l8.6,15.4c0.2,0.3,0.1,0.7-0.2,0.9l-7.9,5.8c-0.3,0.2-0.7,0.2-1,0l-21.3-17c-0.3-0.2-0.8-0.3-1.1-0.1  c0,0-7.4,3.1-11.5,4.9c-3.7,1.5-7.2-2.5-4.2-4.5C38.5,42.7,44.9,37.9,44.9,37.9z"/>
<g>
	<g>
		<path d="M47.9,64.2c1.4,0.5,2.1,1.9,1.6,3.3l-1.8,5.3c-0.5,1.4-1.9,2.1-3.3,1.6l0,0c-1.4-0.5-2.1-1.9-1.6-3.3l1.8-5.3    C45,64.5,46.5,63.8,47.9,64.2L47.9,64.2z"/>
	</g>
	<g>
		<path d="M42.3,61.1c1.4,0.5,2.1,1.9,1.6,3.3l-1.8,5.3c-0.5,1.4-1.9,2.1-3.3,1.6l0,0c-1.4-0.5-2.1-1.9-1.6-3.3l1.8-5.3    C39.5,61.4,40.9,60.6,42.3,61.1L42.3,61.1z"/>
	</g>
	<g>
		<path d="M36,59.8c1.4,0.5,2.1,1.9,1.6,3.3l-1.1,3.2c-0.5,1.4-1.9,2.1-3.3,1.6l0,0c-1.4-0.5-2.1-1.9-1.6-3.3l1.1-3.2    C33.2,60.1,34.7,59.4,36,59.8L36,59.8z"/>
	</g>
	<g>
		<path d="M29.7,58.7c1.4,0.5,2.1,1.9,1.6,3.3l-0.4,1.2c-0.5,1.4-1.9,2.1-3.3,1.6l0,0c-1.4-0.5-2.1-1.9-1.6-3.3l0.4-1.2    C26.9,59,28.4,58.3,29.7,58.7L29.7,58.7z"/>
	</g>
</g>
<path d="M99.9,47c0.3,0.5,0.1,1.1-0.4,1.4l-12.1,6.6c-0.5,0.3-1.1,0.1-1.4-0.4l-9.1-16.8c-0.3-0.5-0.1-1.1,0.4-1.4l12.1-6.6  c0.5-0.3,1.1-0.1,1.4,0.4L99.9,47z"/>
<path d="M0.1,47c-0.3,0.5-0.1,1.1,0.4,1.4l12.1,6.6c0.5,0.3,1.1,0.1,1.4-0.4l9.1-16.8c0.3-0.5,0.1-1.1-0.4-1.4l-12.1-6.6  c-0.5-0.3-1.1-0.1-1.4,0.4L0.1,47z"/>
</svg>
