<?xml version="1.0" encoding="utf-8"?>
<svg version="1.1" id="Ebene_1" xmlns="http://www.w3.org/2000/svg" xmlns:xlink="http://www.w3.org/1999/xlink" x="0px" y="0px"
	 width="100px" height="100px" viewBox="0 0 100 100" style="enable-background:new 0 0 100 100;" xml:space="preserve" preserveAspectRatio="xMinYMid">

<path d="M32.005,45.424v10.99h18.16c-0.731,4.719-5.495,13.846-18.16,13.846c-10.92,0-19.835-9.08-19.835-20.26
	c0-11.179,8.915-20.259,19.835-20.259c6.226,0,10.377,2.665,12.759,4.954l8.68-8.374c-5.566-5.236-12.783-8.396-21.438-8.396
	C14.316,17.924,0,32.264,0,50c0,17.737,14.316,32.077,32.005,32.077c18.467,0,30.731-13.02,30.731-31.346
	c0-2.098-0.236-3.703-0.496-5.306H32.005L32.005,45.424z M100,45.212h-9.127v-9.128h-9.104v9.128h-9.127v9.104h9.127v9.127h9.104
	v-9.127H100"/>
</svg>
