<?xml version="1.0" encoding="utf-8"?>
<svg version="1.1" id="Ebene_1" xmlns="http://www.w3.org/2000/svg" xmlns:xlink="http://www.w3.org/1999/xlink" x="0px" y="0px"
	 width="100px" height="100px" viewBox="0 0 100 100" enable-background="new 0 0 100 100" xml:space="preserve" preserveAspectRatio="xMinYMid">
	<style type="text/css">
		path{
			fill:#000;
		}
	</style>
<path id="reddit" fill="#010101" d="M71.498,53.721c0.258,0.66,0.375,1.341,0.375,2.019c0,1.362-0.471,2.687-1.262,3.767
	c-0.781,1.068-1.888,1.897-3.189,2.262h0.002c-0.011,0.005-0.021,0.005-0.027,0.009c-0.006,0-0.014,0.004-0.018,0.004
	c-0.61,0.209-1.235,0.307-1.855,0.307c-1.455,0-2.883-0.524-4.023-1.418c-1.133-0.889-1.99-2.167-2.26-3.684h-0.002
	c0-0.004,0-0.01-0.002-0.016c0-0.005,0-0.009-0.005-0.016h0.005c-0.085-0.391-0.129-0.781-0.129-1.167
	c0-1.313,0.447-2.574,1.186-3.616c0.735-1.035,1.773-1.857,2.986-2.28c0.005,0,0.01-0.003,0.01-0.003
	c0.006,0,0.006-0.006,0.012-0.006c0.687-0.254,1.412-0.381,2.129-0.381c1.307,0,2.594,0.396,3.678,1.12
	c1.072,0.713,1.942,1.759,2.379,3.057c0.004,0.008,0.004,0.016,0.008,0.023c0,0.009,0.006,0.014,0.01,0.02H71.498L71.498,53.721z
	 M67.5,69.829c-0.512-0.332-1.104-0.532-1.732-0.532c-0.505,0-1.03,0.145-1.498,0.454l0,0c-4.418,2.638-9.615,4.082-14.774,4.082
	c-3.871,0-7.719-0.816-11.205-2.529l-0.018-0.008l-0.017-0.007c-0.526-0.215-1.125-0.672-1.778-1.106
	c-0.332-0.216-0.679-0.429-1.063-0.587c-0.38-0.161-0.802-0.274-1.252-0.274c-0.373,0-0.765,0.084-1.152,0.26
	c-0.02,0.008-0.039,0.015-0.059,0.022h0.002c-0.608,0.232-1.083,0.658-1.389,1.161c-0.319,0.519-0.476,1.122-0.476,1.724
	c0,0.542,0.128,1.085,0.394,1.577c0.252,0.467,0.64,0.875,1.148,1.148c4.982,3.36,10.849,4.883,16.738,4.877
	c5.31,0,10.652-1.229,15.408-3.467l0.024-0.015l0.024-0.013c0.627-0.372,1.461-0.705,2.246-1.189
	c0.389-0.247,0.768-0.534,1.094-0.906c0.325-0.37,0.586-0.826,0.734-1.366v-0.002c0.062-0.238,0.092-0.471,0.092-0.703
	c0-0.441-0.109-0.86-0.289-1.237C68.438,70.626,68.006,70.161,67.5,69.829z M32.52,61.748c0.009,0,0.02,0.003,0.03,0.009
	c0.636,0.231,1.292,0.347,1.94,0.347c1.619,0,3.192-0.663,4.383-1.743c1.189-1.084,2.004-2.618,2.004-4.365
	c0-0.046,0-0.092-0.002-0.146c0.004-0.078,0.006-0.164,0.006-0.252c0-1.734-0.804-3.273-1.981-4.362
	c-1.182-1.089-2.752-1.755-4.376-1.755c-0.434,0-0.876,0.051-1.309,0.151c-0.007,0-0.012,0.002-0.018,0.002c0,0-0.004,0-0.006,0
	c-2.151,0.45-4.039,2.047-4.736,4.242l0,0v0.003c0,0.004-0.002,0.009-0.002,0.009c-0.2,0.601-0.293,1.222-0.293,1.836
	c0,1.345,0.444,2.656,1.211,3.734c0.76,1.061,1.835,1.894,3.126,2.283C32.506,61.741,32.511,61.743,32.52,61.748z M99.98,46.056
	v0.009c0.016,0.219,0.02,0.437,0.02,0.653c0,2.429-0.779,4.765-2.078,6.746c-1.214,1.854-2.887,3.406-4.814,4.458
	c0.124,0.967,0.195,1.941,0.195,2.913c-0.002,5.229-1.805,10.37-4.945,14.491v0.002h-0.006
	c-5.806,7.723-14.721,12.276-23.723,14.573h-0.002l-0.006,0.006c-4.801,1.165-9.751,1.761-14.699,1.761
	c-7.377,0-14.748-1.33-21.626-4.089l-0.002-0.006h-0.007c-7.131-2.939-13.926-7.612-18.092-14.458
	c-2.242-3.652-3.473-7.938-3.473-12.242c0-0.975,0.066-1.95,0.196-2.915c-1.877-1.057-3.502-2.556-4.709-4.345
	C0.92,51.691,0.103,49.44,0,47.06v-0.009v-0.009v-0.019c0.002-3.334,1.45-6.491,3.7-8.819c2.25-2.327,5.323-3.849,8.62-3.849
	c0.046,0,0.091,0,0.137,0c0.346-0.023,0.694-0.037,1.043-0.037c1.656,0,3.315,0.268,4.892,0.872l0.009,0.007l0.009,0.003
	c1.345,0.566,2.682,1.25,3.874,2.196c0.386-0.202,0.807-0.43,1.28-0.61c7.222-4.276,15.617-5.926,23.798-6.402
	c0.071-4.053,0.569-8.295,2.545-12.008c1.646-3.085,4.503-5.487,7.905-6.319l0.014-0.007l0.02-0.002
	c1.295-0.251,2.602-0.366,3.899-0.366c3.457,0,6.872,0.818,10.069,2.097c1.415-2.136,3.436-3.803,5.805-4.737l0.023-0.014
	l0.023-0.008c1.391-0.434,2.859-0.688,4.334-0.688c1.557,0,3.125,0.284,4.594,0.941V9.268c0.002,0.006,0.004,0.006,0.004,0.006
	c0.012,0.003,0.02,0.01,0.027,0.01c2.105,0.812,3.889,2.311,5.153,4.173c1.265,1.872,2.009,4.113,2.009,6.417
	c0,0.425-0.023,0.851-0.072,1.276l-0.006,0.009c0,0.006,0,0.016-0.002,0.022c-0.246,2.978-1.756,5.591-3.891,7.454
	c-2.148,1.871-4.931,3.001-7.786,3.001c-0.458,0-0.921-0.025-1.38-0.087c-2.833-0.216-5.475-1.587-7.414-3.626
	c-1.947-2.035-3.201-4.755-3.201-7.69c0-0.143,0.014-0.288,0.018-0.429c-2.658-1.184-5.482-2.166-8.287-2.163
	c-0.406,0-0.813,0.022-1.219,0.063h-0.004c-2.101,0.202-4.054,1.526-5,3.431v0.002v0.007c-1.437,2.798-1.723,6.068-1.767,9.314
	c8.054,0.525,16.155,2.458,23.26,6.542h0.011l0.102,0.061c0.135,0.079,0.385,0.216,0.61,0.337c0.488-0.396,1.005-0.804,1.594-1.155
	c2.153-1.435,4.706-2.147,7.259-2.147c1.133,0,2.268,0.145,3.367,0.427h0.004l0.046,0.013c0.017,0.003,0.028,0.008,0.042,0.008
	v0.002c2.6,0.662,4.951,2.155,6.723,4.168c1.77,2.017,2.96,4.568,3.192,7.338v0.006H99.98L99.98,46.056z M76.259,19.699
	c0,0.109,0.002,0.222,0.013,0.335v0.007v0.013c0.053,1.399,0.713,2.702,1.717,3.663c1.01,0.963,2.348,1.559,3.707,1.563h0.018h0.02
	c0.098,0.008,0.197,0.008,0.293,0.008c1.371,0.002,2.731-0.588,3.754-1.547c1.023-0.964,1.699-2.273,1.754-3.685l0.002-0.007v-0.009
	c0.008-0.107,0.013-0.21,0.013-0.32c0-1.452-0.679-2.837-1.743-3.862c-1.059-1.023-2.484-1.658-3.891-1.655
	c-0.453,0-0.902,0.063-1.344,0.199l-0.014,0.001l-0.014,0.005c-1.158,0.302-2.245,1.016-3.025,1.965
	C76.734,17.317,76.259,18.485,76.259,19.699z M16.812,41.286c-1.077-0.502-2.189-0.859-3.29-0.855c-0.185,0-0.371,0.012-0.556,0.031
	h-0.025l-0.025,0.003c-1.58,0.044-3.174,0.732-4.371,1.837c-1.198,1.101-1.99,2.586-2.051,4.224v0.016l-0.002,0.013
	c-0.011,0.133-0.015,0.265-0.015,0.392c0,1.011,0.31,1.986,0.835,2.876c0.389,0.662,0.899,1.265,1.476,1.79
	C10.633,47.568,13.518,44.138,16.812,41.286z M86.969,61.061c0-3.604-1.301-7.223-3.406-10.137
	c-4.196-5.841-10.707-9.649-17.48-11.773l-0.047-0.017c-1.301-0.398-2.613-0.752-3.938-1.054c-3.957-0.901-8.016-1.351-12.07-1.351
	c-5.444,0-10.887,0.806-16.099,2.413c-6.771,2.149-13.304,5.932-17.492,11.79v0.005c-2.122,2.926-3.365,6.558-3.365,10.175
	c0,1.331,0.167,2.662,0.519,3.958l0.004,0.002c0.762,2.908,2.252,5.504,4.182,7.764c1.929,2.266,4.295,4.198,6.784,5.775
	c0.551,0.342,1.104,0.667,1.671,0.984C33.46,83.632,41.785,85.4,50.049,85.4c1.398,0,2.804-0.05,4.193-0.149
	c8.322-0.688,16.68-3.146,23.436-8.165l0.002-0.005c2.15-1.59,4.143-3.514,5.719-5.702c1.582-2.189,2.74-4.637,3.255-7.296v-0.008
	l0.002-0.002C86.866,63.08,86.969,62.072,86.969,61.061z M93.537,46.72c-0.002-0.875-0.201-1.745-0.64-2.558l-0.011-0.01
	l-0.005-0.014c-0.586-1.206-1.507-2.118-2.615-2.739c-1.108-0.625-2.407-0.942-3.708-0.942c-1.178,0-2.349,0.263-3.388,0.785
	c3.305,2.87,6.204,6.319,8.077,10.378c0.604-0.525,1.119-1.167,1.504-1.88C93.253,48.805,93.537,47.755,93.537,46.72z"/>
</svg>
