<?xml version="1.0" encoding="utf-8"?>
<svg version="1.1" id="Ebene_1" xmlns="http://www.w3.org/2000/svg" xmlns:xlink="http://www.w3.org/1999/xlink" x="0px" y="0px"
	 width="100px" height="100px" viewBox="0 0 100 100" enable-background="new 0 0 100 100" xml:space="preserve" preserveAspectRatio="xMinYMid">
<style type="text/css">
path{
	fill:#000;
}
</style>
<path d="M16.5,20.1c-0.9,0-1.6,0.3-1.9,0.9c-0.4,0.6-0.3,1.4,0.1,2.2l9.6,16.5v0.1l-15,26.5c-0.4,0.8-0.4,1.601,0,2.2
	c0.4,0.6,1,1,1.8,1h14.1c2.1,0,3.1-1.4,3.9-2.7c0,0,14.7-26,15.3-27c-0.1-0.1-9.7-16.9-9.7-16.9c-0.7-1.3-1.8-2.6-3.9-2.6H16.5V20.1
	z"/>
<path id="path19375" d="M75.9,0.8c-2.101,0-3,1.3-3.801,2.7c0,0-30.399,54-31.5,55.8c0.1,0.101,20.1,36.8,20.1,36.8
	c0.7,1.301,1.8,2.7,3.899,2.7H78.7c0.899,0,1.5-0.3,1.899-0.899c0.4-0.601,0.4-1.4,0-2.2L60.7,59.3v-0.1L92,3.8
	c0.4-0.8,0.4-1.6,0-2.2s-1-0.9-1.9-0.9H75.9V0.8z"/>
</svg>
