<?xml version="1.0" encoding="utf-8"?>
<!-- Generator: Adobe Illustrator 16.0.3, SVG Export Plug-In . SVG Version: 6.00 Build 0)  -->
<!DOCTYPE svg PUBLIC "-//W3C//DTD SVG 1.1//EN" "http://www.w3.org/Graphics/SVG/1.1/DTD/svg11.dtd">
<svg version="1.1" id="Ebene_1" xmlns="http://www.w3.org/2000/svg" xmlns:xlink="http://www.w3.org/1999/xlink" x="0px" y="0px"
	 width="100px" height="100px" viewBox="0 0 100 100" style="enable-background:new 0 0 100 100;" xml:space="preserve">
<style type="text/css">
<![CDATA[
	.st0{fill:#FFFFFF;}
]]>
</style>
<path class="st0" d="M32.005,63.349v10.99h18.16c-0.731,4.718-5.495,13.845-18.16,13.845c-10.92,0-19.835-9.08-19.835-20.26
	c0-11.179,8.915-20.259,19.835-20.259c6.226,0,10.377,2.665,12.759,4.954l8.68-8.374c-5.566-5.236-12.783-8.396-21.438-8.396
	C14.316,35.849,0,50.188,0,67.924C0,85.66,14.316,100,32.005,100c18.467,0,30.731-13.02,30.731-31.345
	c0-2.099-0.236-3.703-0.496-5.307H32.005L32.005,63.349z M100,63.137h-9.127v-9.128h-9.104v9.128h-9.127v9.104h9.127v9.127h9.104
	V72.24H100"/>
</svg>
