<?xml version="1.0" encoding="utf-8"?>
<svg version="1.1" id="Ebene_1" xmlns="http://www.w3.org/2000/svg" xmlns:xlink="http://www.w3.org/1999/xlink" x="0px" y="0px"
	 width="100px" height="100px" viewBox="0 0 100 100" enable-background="new 0 0 100 100" xml:space="preserve" preserveAspectRatio="xMinYMid">
	<style type="text/css">
		path{
			fill:#000;
		}
	</style>

	<path d="M52.5,17.2v16.6H68v10.3H52.5v16.8c0,3.8,0.2,6.199,0.6,7.3c0.4,1.1,1.101,1.899,2.301,2.6c1.5,0.9,3.1,1.3,5,1.3
	c3.3,0,6.6-1.1,9.899-3.199V79.3c-2.8,1.3-5.3,2.3-7.6,2.8S58,82.9,55.3,82.9c-3,0-5.6-0.4-8-1.101C45,81,43,80,41.4,78.6
	C39.7,77,38.6,75.5,38,74c-0.6-1.6-0.9-3.9-0.9-6.9v-23h-7.3v-9.3c2.6-0.8,4.8-2,6.6-3.6c1.8-1.6,3.3-3.4,4.4-5.6
	c1.1-2.2,1.9-5,2.3-8.4H52.5z"/>
</svg>
